<svg width="4608" height="1529" xmlns="http://www.w3.org/2000/svg" xmlns:xlink="http://www.w3.org/1999/xlink" xml:space="preserve" overflow="hidden"><defs><clipPath id="clip0"><rect x="1538" y="1574" width="4608" height="1529"/></clipPath></defs><g clip-path="url(#clip0)" transform="translate(-1538 -1574)"><rect x="2630" y="1581" width="2390" height="1515" stroke="#000000" stroke-width="13.75" stroke-miterlimit="8" fill="none"/><rect x="1545" y="2225" width="952" height="244" stroke="#000000" stroke-width="13.75" stroke-miterlimit="8" fill="none"/><text font-family="Microsoft YaHei UI,Microsoft YaHei UI_MSFontService,sans-serif" font-weight="700" font-size="64" transform="matrix(1 0 0 1 1796.37 2370)">未压缩的图像块</text><rect x="2837" y="1726" width="952" height="244" stroke="#000000" stroke-width="13.75" stroke-miterlimit="8" fill="none"/><text font-family="Microsoft YaHei UI,Microsoft YaHei UI_MSFontService,sans-serif" font-weight="700" font-size="64" transform="matrix(1 0 0 1 3136.55 1835)">颜色变换器</text><text font-family="Microsoft YaHei UI,Microsoft YaHei UI_MSFontService,sans-serif" font-weight="700" font-size="64" transform="matrix(1 0 0 1 2822.32 1912)">（</text><text font-family="Microsoft YaHei UI,Microsoft YaHei UI_MSFontService,sans-serif" font-weight="700" font-size="64" transform="matrix(1 0 0 1 2886.48 1912)">YUV</text><text font-family="Microsoft YaHei UI,Microsoft YaHei UI_MSFontService,sans-serif" font-weight="700" font-size="64" transform="matrix(1 0 0 1 3023.98 1912)">、颜色变换</text><text font-family="Microsoft YaHei UI,Microsoft YaHei UI_MSFontService,sans-serif" font-weight="700" font-size="64" transform="matrix(1 0 0 1 3344.82 1912)">1</text><text font-family="Microsoft YaHei UI,Microsoft YaHei UI_MSFontService,sans-serif" font-weight="700" font-size="64" transform="matrix(1 0 0 1 3384.35 1912)">、颜色变换</text><text font-family="Microsoft YaHei UI,Microsoft YaHei UI_MSFontService,sans-serif" font-weight="700" font-size="64" transform="matrix(1 0 0 1 3705.18 1912)">2</text><text font-family="Microsoft YaHei UI,Microsoft YaHei UI_MSFontService,sans-serif" font-weight="700" font-size="64" transform="matrix(1 0 0 1 3744.71 1912)">）</text><rect x="2833" y="2724" width="953" height="244" stroke="#000000" stroke-width="13.75" stroke-miterlimit="8" fill="none"/><text font-family="Microsoft YaHei UI,Microsoft YaHei UI_MSFontService,sans-serif" font-weight="700" font-size="64" transform="matrix(1 0 0 1 3117.87 2869)">LZMA</text><text font-family="Microsoft YaHei UI,Microsoft YaHei UI_MSFontService,sans-serif" font-weight="700" font-size="64" transform="matrix(1 0 0 1 3308.66 2869)">压缩器</text><rect x="2836" y="2225" width="952" height="244" stroke="#000000" stroke-width="13.75" stroke-miterlimit="8" fill="none"/><text font-family="Microsoft YaHei UI,Microsoft YaHei UI_MSFontService,sans-serif" font-weight="700" font-size="64" transform="matrix(1 0 0 1 3088.08 2368)">JPEG</text><text font-family="Microsoft YaHei UI,Microsoft YaHei UI_MSFontService,sans-serif" font-weight="700" font-size="64" transform="matrix(1 0 0 1 3246.77 2368)">-</text><text font-family="Microsoft YaHei UI,Microsoft YaHei UI_MSFontService,sans-serif" font-weight="700" font-size="64" transform="matrix(1 0 0 1 3274.85 2368)">LS</text><text font-family="Microsoft YaHei UI,Microsoft YaHei UI_MSFontService,sans-serif" font-weight="700" font-size="64" transform="matrix(1 0 0 1 3348.18 2368)">压缩器</text><path d="M2761.5 1845.06 2792.5 1845.06 2792.5 1851.94 2761.5 1851.94ZM2787.92 1825.58 2833.75 1848.5 2787.92 1871.42Z"/><path d="M3.43746-0.0164157 4.46065 214.241-2.41427 214.274-3.43746 0.0164157ZM23.9177 209.564 1.22018 255.507-21.9151 209.783Z" transform="matrix(-1 0 0 1 3313.72 1970.5)"/><path d="M4906.5 2843.06 5145.37 2843.06 5145.37 2849.94 4906.5 2849.94ZM5140.79 2823.58 5186.62 2846.5 5140.79 2869.42Z"/><rect x="5187" y="2724" width="952" height="244" stroke="#000000" stroke-width="13.75" stroke-miterlimit="8" fill="none"/><text font-family="Microsoft YaHei UI,Microsoft YaHei UI_MSFontService,sans-serif" font-weight="700" font-size="64" transform="matrix(1 0 0 1 5470.15 2869)">压缩的图像块</text><text font-family="Microsoft YaHei UI,Microsoft YaHei UI_MSFontService,sans-serif" font-weight="700" font-size="64" transform="matrix(1 0 0 1 4619.7 1679)">压缩模型</text><path d="M2761.5 2344.06 2799.2 2344.06 2799.2 2350.94 2761.5 2350.94ZM2794.61 2324.58 2840.45 2347.5 2794.61 2370.42Z"/><path d="M2761.5 2843.06 2792.5 2843.06 2792.5 2849.94 2761.5 2849.94ZM2787.92 2823.58 2833.75 2846.5 2787.92 2869.42Z"/><path d="M2761.5 1665.5 2761.5 2846.87" stroke="#000000" stroke-width="6.875" stroke-miterlimit="8" fill="none" fill-rule="evenodd"/><path d="M2497.5 2347.5 2761.68 2347.5" stroke="#000000" stroke-width="6.875" stroke-miterlimit="8" fill="none" fill-rule="evenodd"/><rect x="3954" y="2724" width="952" height="244" stroke="#000000" stroke-width="13.75" stroke-miterlimit="8" fill="none"/><text font-family="Microsoft YaHei UI,Microsoft YaHei UI_MSFontService,sans-serif" font-weight="700" font-size="64" transform="matrix(1 0 0 1 4304.54 2867)">算法容器</text><rect x="3954" y="2006" width="952" height="467" stroke="#000000" stroke-width="13.75" stroke-miterlimit="8" fill="none"/><text font-family="Microsoft YaHei UI,Microsoft YaHei UI_MSFontService,sans-serif" font-weight="700" font-size="64" transform="matrix(1 0 0 1 4272.46 2259)">算法混合器</text><path d="M2761.5 1665.5 4456.21 1665.5" stroke="#000000" stroke-width="6.875" stroke-miterlimit="8" fill="none" fill-rule="evenodd"/><path d="M4459.94 1661.5 4459.94 1961.51 4453.06 1961.51 4453.06 1661.5ZM4479.42 1956.93 4456.5 2002.76 4433.58 1956.93Z"/><path d="M4459.94 2469.5 4459.94 2679.83 4453.06 2679.83 4453.06 2469.5ZM4479.42 2675.24 4456.5 2721.08 4433.58 2675.24Z"/><path d="M7.45537e-06-3.4375 125.149-3.43723 125.149 3.43777-7.45537e-06 3.4375ZM120.566-22.9164 166.399 0.000360892 120.566 22.9169Z" transform="matrix(1 0 0 -1 3788.5 2347.5)"/><path d="M3786.5 2846.5 3864.9 2846.5" stroke="#000000" stroke-width="6.875" stroke-miterlimit="8" fill="none" fill-rule="evenodd"/><path d="M3865.5 2347.5 3865.5 2846.58" stroke="#000000" stroke-width="6.875" stroke-miterlimit="8" fill="none" fill-rule="evenodd"/></g></svg>