<svg width="2658" height="555" xmlns="http://www.w3.org/2000/svg" xmlns:xlink="http://www.w3.org/1999/xlink" xml:space="preserve" overflow="hidden"><defs><clipPath id="clip0"><rect x="2046" y="1492" width="2658" height="555"/></clipPath></defs><g clip-path="url(#clip0)" transform="translate(-2046 -1492)"><path d="M2490.72 1618.39 2490.72 1756.81" stroke="#000000" stroke-width="4.58333" stroke-linejoin="round" stroke-miterlimit="10" fill="none" fill-rule="evenodd"/><path d="M2932.45 1618.39 2932.45 1756.81" stroke="#000000" stroke-width="4.58333" stroke-linejoin="round" stroke-miterlimit="10" fill="none" fill-rule="evenodd"/><path d="M3374.18 1618.39 3374.18 1756.81" stroke="#000000" stroke-width="4.58333" stroke-linejoin="round" stroke-miterlimit="10" fill="none" fill-rule="evenodd"/><path d="M3815.91 1618.39 3815.91 1756.81" stroke="#000000" stroke-width="4.58333" stroke-linejoin="round" stroke-miterlimit="10" fill="none" fill-rule="evenodd"/><path d="M4257.64 1618.39 4257.64 1756.81" stroke="#000000" stroke-width="4.58333" stroke-linejoin="round" stroke-miterlimit="10" fill="none" fill-rule="evenodd"/><path d="M2048.99 1618.39 2048.99 1756.81" stroke="#000000" stroke-width="4.58333" stroke-linejoin="round" stroke-miterlimit="10" fill="none" fill-rule="evenodd"/><path d="M4699.37 1618.39 4699.37 1756.81" stroke="#000000" stroke-width="4.58333" stroke-linejoin="round" stroke-miterlimit="10" fill="none" fill-rule="evenodd"/><path d="M2046.7 1620.69 4701.66 1620.69" stroke="#000000" stroke-width="4.58333" stroke-linejoin="round" stroke-miterlimit="10" fill="none" fill-rule="evenodd"/><path d="M2046.7 1754.52 4701.66 1754.52" stroke="#000000" stroke-width="4.58333" stroke-linejoin="round" stroke-miterlimit="10" fill="none" fill-rule="evenodd"/><text font-family="Microsoft YaHei UI,Microsoft YaHei UI_MSFontService,sans-serif" font-weight="700" font-size="64" transform="matrix(1 0 0 1 4447.57 1713)">…</text><text font-family="Microsoft YaHei UI,Microsoft YaHei UI_MSFontService,sans-serif" font-weight="700" font-size="64" transform="matrix(1 0 0 1 4005.84 1713)">…</text><text font-family="Microsoft YaHei UI,Microsoft YaHei UI_MSFontService,sans-serif" font-weight="700" font-size="64" transform="matrix(1 0 0 1 3564.11 1713)">…</text><text font-family="Microsoft YaHei UI,Microsoft YaHei UI_MSFontService,sans-serif" font-weight="700" font-size="64" transform="matrix(1 0 0 1 3122.38 1713)">…</text><text font-family="Microsoft YaHei UI,Microsoft YaHei UI_MSFontService,sans-serif" font-weight="700" font-size="64" transform="matrix(1 0 0 1 2551.17 1713)">实际压缩块</text><text font-family="Microsoft YaHei UI,Microsoft YaHei UI_MSFontService,sans-serif" font-weight="700" font-size="64" transform="matrix(1 0 0 1 2109.44 1713)">算法标识符</text><path d="M2490.72 1898.96 2490.72 2037.38" stroke="#000000" stroke-width="4.58333" stroke-linejoin="round" stroke-miterlimit="10" fill="none" fill-rule="evenodd"/><path d="M2932.45 1898.96 2932.45 2037.38" stroke="#000000" stroke-width="4.58333" stroke-linejoin="round" stroke-miterlimit="10" fill="none" fill-rule="evenodd"/><path d="M3374.18 1898.96 3374.18 2037.38" stroke="#000000" stroke-width="4.58333" stroke-linejoin="round" stroke-miterlimit="10" fill="none" fill-rule="evenodd"/><path d="M3815.91 1898.96 3815.91 2037.38" stroke="#000000" stroke-width="4.58333" stroke-linejoin="round" stroke-miterlimit="10" fill="none" fill-rule="evenodd"/><path d="M4257.64 1898.96 4257.64 2037.38" stroke="#000000" stroke-width="4.58333" stroke-linejoin="round" stroke-miterlimit="10" fill="none" fill-rule="evenodd"/><path d="M2048.99 1898.96 2048.99 2037.38" stroke="#000000" stroke-width="4.58333" stroke-linejoin="round" stroke-miterlimit="10" fill="none" fill-rule="evenodd"/><path d="M4699.37 1898.96 4699.37 2037.38" stroke="#000000" stroke-width="4.58333" stroke-linejoin="round" stroke-miterlimit="10" fill="none" fill-rule="evenodd"/><path d="M2046.7 1901.26 4701.66 1901.26" stroke="#000000" stroke-width="4.58333" stroke-linejoin="round" stroke-miterlimit="10" fill="none" fill-rule="evenodd"/><path d="M2046.7 2035.09 4701.66 2035.09" stroke="#000000" stroke-width="4.58333" stroke-linejoin="round" stroke-miterlimit="10" fill="none" fill-rule="evenodd"/><text font-family="Microsoft YaHei UI,Microsoft YaHei UI_MSFontService,sans-serif" font-weight="700" font-size="64" transform="matrix(1 0 0 1 4447.57 1994)">…</text><text font-family="Microsoft YaHei UI,Microsoft YaHei UI_MSFontService,sans-serif" font-weight="700" font-size="64" transform="matrix(1 0 0 1 4005.84 1994)">…</text><text font-family="Microsoft YaHei UI,Microsoft YaHei UI_MSFontService,sans-serif" font-weight="700" font-size="64" transform="matrix(1 0 0 1 3564.11 1994)">…</text><text font-family="Microsoft YaHei UI,Microsoft YaHei UI_MSFontService,sans-serif" font-weight="700" font-size="64" transform="matrix(1 0 0 1 3122.38 1994)">…</text><text font-family="Microsoft YaHei UI,Microsoft YaHei UI_MSFontService,sans-serif" font-weight="700" font-size="64" transform="matrix(1 0 0 1 2680.65 1994)">…</text><text font-family="Microsoft YaHei UI,Microsoft YaHei UI_MSFontService,sans-serif" font-weight="700" font-size="64" transform="matrix(1 0 0 1 2141.52 1994)">原始数据</text><text font-family="Microsoft YaHei UI,Microsoft YaHei UI_MSFontService,sans-serif" font-weight="700" font-size="83" transform="matrix(1 0 0 1 2113.86 1877)">块长度</text><text font-family="Microsoft YaHei UI,Microsoft YaHei UI_MSFontService,sans-serif" font-weight="700" font-size="83" transform="matrix(1 0 0 1 2361.36 1877)">=256</text><text font-family="Microsoft YaHei UI,Microsoft YaHei UI_MSFontService,sans-serif" font-weight="700" font-size="83" transform="matrix(1 0 0 1 2113.86 1599)">块长度</text><text font-family="Microsoft YaHei UI,Microsoft YaHei UI_MSFontService,sans-serif" font-weight="700" font-size="83" transform="matrix(1 0 0 1 2361.36 1599)">&lt;256</text></g></svg>