<svg width="2614" height="1529" xmlns="http://www.w3.org/2000/svg" xmlns:xlink="http://www.w3.org/1999/xlink" xml:space="preserve" overflow="hidden"><defs><clipPath id="clip0"><rect x="2623" y="1574" width="2614" height="1529"/></clipPath></defs><g clip-path="url(#clip0)" transform="translate(-2623 -1574)"><rect x="2630" y="1581" width="2390" height="1515" stroke="#000000" stroke-width="13.75" stroke-miterlimit="8" fill="none"/><rect x="2744" y="1680" width="952" height="243" stroke="#000000" stroke-width="13.75" stroke-miterlimit="8" fill="none"/><text font-family="Microsoft YaHei UI,Microsoft YaHei UI_MSFontService,sans-serif" font-weight="700" font-size="64" transform="matrix(1 0 0 1 2975.26 1824)">算法</text><text font-family="Microsoft YaHei UI,Microsoft YaHei UI_MSFontService,sans-serif" font-weight="700" font-size="64" transform="matrix(1 0 0 1 3103.6 1824)">1</text><text font-family="Microsoft YaHei UI,Microsoft YaHei UI_MSFontService,sans-serif" font-weight="700" font-size="64" transform="matrix(1 0 0 1 3143.13 1824)">：原块储存</text><rect x="2744" y="2045" width="952" height="243" stroke="#000000" stroke-width="13.75" stroke-miterlimit="8" fill="none"/><text font-family="Microsoft YaHei UI,Microsoft YaHei UI_MSFontService,sans-serif" font-weight="700" font-size="64" transform="matrix(1 0 0 1 2867.87 2190)">算法</text><text font-family="Microsoft YaHei UI,Microsoft YaHei UI_MSFontService,sans-serif" font-weight="700" font-size="64" transform="matrix(1 0 0 1 2996.21 2190)">2</text><text font-family="Microsoft YaHei UI,Microsoft YaHei UI_MSFontService,sans-serif" font-weight="700" font-size="64" transform="matrix(1 0 0 1 3035.74 2190)">：普通的</text><text font-family="Microsoft YaHei UI,Microsoft YaHei UI_MSFontService,sans-serif" font-weight="700" font-size="64" transform="matrix(1 0 0 1 3311.31 2190)">JPEG</text><text font-family="Microsoft YaHei UI,Microsoft YaHei UI_MSFontService,sans-serif" font-weight="700" font-size="64" transform="matrix(1 0 0 1 3470.01 2190)">-</text><text font-family="Microsoft YaHei UI,Microsoft YaHei UI_MSFontService,sans-serif" font-weight="700" font-size="64" transform="matrix(1 0 0 1 3498.08 2190)">LS</text><rect x="2744" y="2410" width="952" height="244" stroke="#000000" stroke-width="13.75" stroke-miterlimit="8" fill="none"/><rect x="2744" y="2767" width="952" height="244" stroke="#000000" stroke-width="13.75" stroke-miterlimit="8" fill="none"/><text font-family="Microsoft YaHei UI,Microsoft YaHei UI_MSFontService,sans-serif" font-weight="700" font-size="64" transform="matrix(1 0 0 1 3009.67 2553)">算法</text><text font-family="Microsoft YaHei UI,Microsoft YaHei UI_MSFontService,sans-serif" font-weight="700" font-size="64" transform="matrix(1 0 0 1 3138 2553)">3</text><text font-family="Microsoft YaHei UI,Microsoft YaHei UI_MSFontService,sans-serif" font-weight="700" font-size="64" transform="matrix(1 0 0 1 3177.53 2553)">：</text><text font-family="Microsoft YaHei UI,Microsoft YaHei UI_MSFontService,sans-serif" font-weight="700" font-size="64" transform="matrix(1 0 0 1 3241.7 2553)">LZMA</text><text font-family="Microsoft YaHei UI,Microsoft YaHei UI_MSFontService,sans-serif" font-weight="700" font-size="64" transform="matrix(1 0 0 1 4673.56 1664)">算法混合器</text><text font-family="Microsoft YaHei UI,Microsoft YaHei UI_MSFontService,sans-serif" font-weight="700" font-size="64" transform="matrix(1 0 0 1 3010.1 2912)">算法</text><text font-family="Microsoft YaHei UI,Microsoft YaHei UI_MSFontService,sans-serif" font-weight="700" font-size="64" transform="matrix(1 0 0 1 3138.43 2912)">4</text><text font-family="Microsoft YaHei UI,Microsoft YaHei UI_MSFontService,sans-serif" font-weight="700" font-size="64" transform="matrix(1 0 0 1 3177.96 2912)">：空白块</text><rect x="3839" y="1680" width="953" height="243" stroke="#000000" stroke-width="13.75" stroke-miterlimit="8" fill="none"/><text font-family="Microsoft YaHei UI,Microsoft YaHei UI_MSFontService,sans-serif" font-weight="700" font-size="64" transform="matrix(1 0 0 1 4034.52 1794)">算法</text><text font-family="Microsoft YaHei UI,Microsoft YaHei UI_MSFontService,sans-serif" font-weight="700" font-size="64" transform="matrix(1 0 0 1 4162.85 1794)">5</text><text font-family="Microsoft YaHei UI,Microsoft YaHei UI_MSFontService,sans-serif" font-weight="700" font-size="64" transform="matrix(1 0 0 1 4202.38 1794)">：</text><text font-family="Microsoft YaHei UI,Microsoft YaHei UI_MSFontService,sans-serif" font-weight="700" font-size="64" transform="matrix(1 0 0 1 4266.55 1794)">YUV</text><text font-family="Microsoft YaHei UI,Microsoft YaHei UI_MSFontService,sans-serif" font-weight="700" font-size="64" transform="matrix(1 0 0 1 4404.05 1794)">变换的</text><text font-family="Microsoft YaHei UI,Microsoft YaHei UI_MSFontService,sans-serif" font-weight="700" font-size="64" transform="matrix(1 0 0 1 4185.47 1871)">JPEG</text><text font-family="Microsoft YaHei UI,Microsoft YaHei UI_MSFontService,sans-serif" font-weight="700" font-size="64" transform="matrix(1 0 0 1 4344.17 1871)">-</text><text font-family="Microsoft YaHei UI,Microsoft YaHei UI_MSFontService,sans-serif" font-weight="700" font-size="64" transform="matrix(1 0 0 1 4372.24 1871)">LS</text><rect x="3839" y="2045" width="953" height="243" stroke="#000000" stroke-width="13.75" stroke-miterlimit="8" fill="none"/><text font-family="Microsoft YaHei UI,Microsoft YaHei UI_MSFontService,sans-serif" font-weight="700" font-size="64" transform="matrix(1 0 0 1 4019.33 2178)">算法</text><text font-family="Microsoft YaHei UI,Microsoft YaHei UI_MSFontService,sans-serif" font-weight="700" font-size="64" transform="matrix(1 0 0 1 4147.67 2178)">6</text><text font-family="Microsoft YaHei UI,Microsoft YaHei UI_MSFontService,sans-serif" font-weight="700" font-size="64" transform="matrix(1 0 0 1 4187.2 2178)">：颜色变换</text><text font-family="Microsoft YaHei UI,Microsoft YaHei UI_MSFontService,sans-serif" font-weight="700" font-size="64" transform="matrix(1 0 0 1 4508.03 2178)">1</text><text font-family="Microsoft YaHei UI,Microsoft YaHei UI_MSFontService,sans-serif" font-weight="700" font-size="64" transform="matrix(1 0 0 1 4547.56 2178)">的</text><text font-family="Microsoft YaHei UI,Microsoft YaHei UI_MSFontService,sans-serif" font-weight="700" font-size="64" transform="matrix(1 0 0 1 4185.48 2255)">JPEG</text><text font-family="Microsoft YaHei UI,Microsoft YaHei UI_MSFontService,sans-serif" font-weight="700" font-size="64" transform="matrix(1 0 0 1 4344.18 2255)">-</text><text font-family="Microsoft YaHei UI,Microsoft YaHei UI_MSFontService,sans-serif" font-weight="700" font-size="64" transform="matrix(1 0 0 1 4372.25 2255)">LS</text><rect x="3839" y="2410" width="953" height="244" stroke="#000000" stroke-width="13.75" stroke-miterlimit="8" fill="none"/><text font-family="Microsoft YaHei UI,Microsoft YaHei UI_MSFontService,sans-serif" font-weight="700" font-size="64" transform="matrix(1 0 0 1 4019.33 2514)">算法</text><text font-family="Microsoft YaHei UI,Microsoft YaHei UI_MSFontService,sans-serif" font-weight="700" font-size="64" transform="matrix(1 0 0 1 4147.67 2514)">7</text><text font-family="Microsoft YaHei UI,Microsoft YaHei UI_MSFontService,sans-serif" font-weight="700" font-size="64" transform="matrix(1 0 0 1 4187.2 2514)">：颜色变换</text><text font-family="Microsoft YaHei UI,Microsoft YaHei UI_MSFontService,sans-serif" font-weight="700" font-size="64" transform="matrix(1 0 0 1 4508.03 2514)">2</text><text font-family="Microsoft YaHei UI,Microsoft YaHei UI_MSFontService,sans-serif" font-weight="700" font-size="64" transform="matrix(1 0 0 1 4547.56 2514)">的</text><text font-family="Microsoft YaHei UI,Microsoft YaHei UI_MSFontService,sans-serif" font-weight="700" font-size="64" transform="matrix(1 0 0 1 4185.48 2591)">JPEG</text><text font-family="Microsoft YaHei UI,Microsoft YaHei UI_MSFontService,sans-serif" font-weight="700" font-size="64" transform="matrix(1 0 0 1 4344.18 2591)">-</text><text font-family="Microsoft YaHei UI,Microsoft YaHei UI_MSFontService,sans-serif" font-weight="700" font-size="64" transform="matrix(1 0 0 1 4372.25 2591)">LS</text><rect x="3837" y="2767" width="952" height="244" stroke="#000000" stroke-width="13.75" stroke-miterlimit="8" fill="none"/><text font-family="Microsoft YaHei UI,Microsoft YaHei UI_MSFontService,sans-serif" font-weight="700" font-size="64" transform="matrix(1 0 0 1 4219.58 2912)">混合器</text></g></svg>