<svg width="4608" height="1529" xmlns="http://www.w3.org/2000/svg" xmlns:xlink="http://www.w3.org/1999/xlink" xml:space="preserve" overflow="hidden"><defs><clipPath id="clip0"><rect x="1538" y="1574" width="4608" height="1529"/></clipPath></defs><g clip-path="url(#clip0)" transform="translate(-1538 -1574)"><rect x="2630" y="1581" width="2390" height="1515" stroke="#000000" stroke-width="13.75" stroke-miterlimit="8" fill="none"/><rect x="1545" y="2225" width="952" height="244" stroke="#000000" stroke-width="13.75" stroke-miterlimit="8" fill="none"/><text font-family="Microsoft YaHei UI,Microsoft YaHei UI_MSFontService,sans-serif" font-weight="700" font-size="64" transform="matrix(1 0 0 1 1796.37 2370)">未压缩的图像块</text><rect x="2837" y="1726" width="952" height="244" stroke="#000000" stroke-width="13.75" stroke-miterlimit="8" fill="none"/><text font-family="Microsoft YaHei UI,Microsoft YaHei UI_MSFontService,sans-serif" font-weight="700" font-size="64" transform="matrix(1 0 0 1 3136.55 1835)">颜色变换器</text><text font-family="Microsoft YaHei UI,Microsoft YaHei UI_MSFontService,sans-serif" font-weight="700" font-size="64" transform="matrix(1 0 0 1 2822.32 1912)">（</text><text font-family="Microsoft YaHei UI,Microsoft YaHei UI_MSFontService,sans-serif" font-weight="700" font-size="64" transform="matrix(1 0 0 1 2886.48 1912)">YUV</text><text font-family="Microsoft YaHei UI,Microsoft YaHei UI_MSFontService,sans-serif" font-weight="700" font-size="64" transform="matrix(1 0 0 1 3023.98 1912)">、颜色变换</text><text font-family="Microsoft YaHei UI,Microsoft YaHei UI_MSFontService,sans-serif" font-weight="700" font-size="64" transform="matrix(1 0 0 1 3344.82 1912)">1</text><text font-family="Microsoft YaHei UI,Microsoft YaHei UI_MSFontService,sans-serif" font-weight="700" font-size="64" transform="matrix(1 0 0 1 3384.35 1912)">、颜色变换</text><text font-family="Microsoft YaHei UI,Microsoft YaHei UI_MSFontService,sans-serif" font-weight="700" font-size="64" transform="matrix(1 0 0 1 3705.18 1912)">2</text><text font-family="Microsoft YaHei UI,Microsoft YaHei UI_MSFontService,sans-serif" font-weight="700" font-size="64" transform="matrix(1 0 0 1 3744.71 1912)">）</text><rect x="2833" y="2724" width="953" height="244" stroke="#000000" stroke-width="13.75" stroke-miterlimit="8" fill="none"/><text font-family="Microsoft YaHei UI,Microsoft YaHei UI_MSFontService,sans-serif" font-weight="700" font-size="64" transform="matrix(1 0 0 1 3117.87 2869)">LZMA</text><text font-family="Microsoft YaHei UI,Microsoft YaHei UI_MSFontService,sans-serif" font-weight="700" font-size="64" transform="matrix(1 0 0 1 3308.66 2869)">解压器</text><rect x="2836" y="2225" width="952" height="244" stroke="#000000" stroke-width="13.75" stroke-miterlimit="8" fill="none"/><text font-family="Microsoft YaHei UI,Microsoft YaHei UI_MSFontService,sans-serif" font-weight="700" font-size="64" transform="matrix(1 0 0 1 3088.08 2368)">JPEG</text><text font-family="Microsoft YaHei UI,Microsoft YaHei UI_MSFontService,sans-serif" font-weight="700" font-size="64" transform="matrix(1 0 0 1 3246.77 2368)">-</text><text font-family="Microsoft YaHei UI,Microsoft YaHei UI_MSFontService,sans-serif" font-weight="700" font-size="64" transform="matrix(1 0 0 1 3274.85 2368)">LS</text><text font-family="Microsoft YaHei UI,Microsoft YaHei UI_MSFontService,sans-serif" font-weight="700" font-size="64" transform="matrix(1 0 0 1 3348.18 2368)">解压器</text><path d="M3310.28 2226.02 3309.26 2011.77 3316.13 2011.73 3317.16 2225.99ZM3289.8 2016.44 3312.5 1970.5 3335.64 2016.22Z"/><path d="M5186.62 2849.94 4947.75 2849.94 4947.75 2843.06 5186.62 2843.06ZM4952.33 2869.42 4906.5 2846.5 4952.33 2823.58Z"/><rect x="5187" y="2724" width="952" height="244" stroke="#000000" stroke-width="13.75" stroke-miterlimit="8" fill="none"/><text font-family="Microsoft YaHei UI,Microsoft YaHei UI_MSFontService,sans-serif" font-weight="700" font-size="64" transform="matrix(1 0 0 1 5470.15 2869)">压缩的图像块</text><text font-family="Microsoft YaHei UI,Microsoft YaHei UI_MSFontService,sans-serif" font-weight="700" font-size="64" transform="matrix(1 0 0 1 4619.7 1679)">解压模型</text><path d="M3.66076e-06-3.4375 297.633-3.43718 297.633 3.43782-3.66076e-06 3.4375ZM293.049-22.9164 338.883 0.000360892 293.049 22.917Z" transform="matrix(-1 0 0 1 2836.38 2347.5)"/><path d="M2761.5 1665.5 2761.5 2846.87" stroke="#000000" stroke-width="6.875" stroke-miterlimit="8" fill="none" fill-rule="evenodd"/><rect x="3954" y="2724" width="952" height="244" stroke="#000000" stroke-width="13.75" stroke-miterlimit="8" fill="none"/><text font-family="Microsoft YaHei UI,Microsoft YaHei UI_MSFontService,sans-serif" font-weight="700" font-size="64" transform="matrix(1 0 0 1 4208.29 2867)">算法容器解析器</text><rect x="3954" y="2006" width="952" height="467" stroke="#000000" stroke-width="13.75" stroke-miterlimit="8" fill="none"/><text font-family="Microsoft YaHei UI,Microsoft YaHei UI_MSFontService,sans-serif" font-weight="700" font-size="64" transform="matrix(1 0 0 1 4272.46 2259)">算法混合器</text><path d="M2761.5 1665.5 4430.75 1665.5" stroke="#000000" stroke-width="6.875" stroke-miterlimit="8" fill="none" fill-rule="evenodd"/><path d="M3.4375-4.9312e-06 3.4378 210.325-3.4372 210.325-3.4375 4.9312e-06ZM22.917 205.742 0.000360892 251.575-22.9164 205.742Z" transform="matrix(1 0 0 -1 4430.5 2725.08)"/><path d="M3954.9 2350.94 3829.75 2350.94 3829.75 2344.06 3954.9 2344.06ZM3834.33 2370.42 3788.5 2347.5 3834.33 2324.58Z"/><path d="M3786.5 2846.5 3864.9 2846.5" stroke="#000000" stroke-width="6.875" stroke-miterlimit="8" fill="none" fill-rule="evenodd"/><path d="M3865.5 2347.5 3865.5 2846.58" stroke="#000000" stroke-width="6.875" stroke-miterlimit="8" fill="none" fill-rule="evenodd"/><path d="M2761.5 2846.5 2833.75 2846.5" stroke="#000000" stroke-width="6.875" stroke-miterlimit="8" fill="none" fill-rule="evenodd"/><path d="M4430.5 1659.5 4430.5 2006.58" stroke="#000000" stroke-width="6.875" stroke-miterlimit="8" fill="none" fill-rule="evenodd"/><path d="M2761.5 1848.5 2833.75 1848.5" stroke="#000000" stroke-width="6.875" stroke-miterlimit="8" fill="none" fill-rule="evenodd"/></g></svg>